# xmcd
#
# Track frame offsets: 
#        150
#        26820
#        41654
#        61073
#        82177
#        100274
#        115087
#        136416
#        150315
#        170482
#        185988
#        203098
#
# Disc length: 2984 seconds
#
# Revision: 0
# Processed by: cddbd v1.5.2PL0 Copyright (c) Steve Scherf et al.
# Submitted via: ExactAudioCopyFreeDBPlugin 1.0
#
DISCID=a20ba60c
DTITLE=Various Artist - Lost Highway - New Music Sampler
DYEAR=2001
DGENRE=Country
TTITLE0=Lucinda Williams - Essence
TTITLE1=Lucinda Williams - Steal Your Love
TTITLE2=The Soggy Bottom Boys - I Am A Man Of Constant Sorrow
TTITLE3=John Hartford - Big Rock Candy Mountain
TTITLE4=Whiskeytown - Don't Wanna Know Why
TTITLE5=Whiskeytown - Mirror, Mirror
TTITLE6=Robert Earl Keen - Walkin' Cane
TTITLE7=Robert Earl Keen - Hall Of Fame
TTITLE8=Billy Bob Thornthon - Forever
TTITLE9=Billy Bob Thornthon - Angelina
TTITLE10=Ryan Adams - New York, New York
TTITLE11=Ryan Adams - Harder Now Thats It's Over
EXTD=
EXTT0=
EXTT1=
EXTT2=
EXTT3=
EXTT4=
EXTT5=
EXTT6=
EXTT7=
EXTT8=
EXTT9=
EXTT10=
EXTT11=
PLAYORDER=
